<svg width="66" height="66" viewBox="0 0 66 66" fill="none" xmlns="http://www.w3.org/2000/svg">
<path d="M33 66C51.2254 66 66 51.2254 66 33C66 14.7746 51.2254 0 33 0C14.7746 0 0 14.7746 0 33C0 51.2254 14.7746 66 33 66Z" fill="#63A63E"/>
<path d="M48.6476 19.2916C48.2564 18.9028 47.6247 18.9028 47.2336 19.2916L28.7946 37.7296C28.4034 38.1183 27.7717 38.1183 27.3806 37.7296L19.2406 29.5906C18.8494 29.2018 18.2177 29.2018 17.8266 29.5906L14.2916 33.1256C13.9028 33.5167 13.9028 34.1484 14.2916 34.5396L27.3806 47.6296C27.7717 48.0183 28.4034 48.0183 28.7946 47.6296L32.3306 44.0936L33.7446 42.6796L52.1826 24.2416C52.5713 23.8504 52.5713 23.2187 52.1826 22.8276L48.6476 19.2916Z" fill="white"/>
</svg>
