<svg width="26" height="15" viewBox="0 0 26 15" fill="none" xmlns="http://www.w3.org/2000/svg">
<path d="M15.5403 11.7284C16.4609 11.4387 17.6395 13.6409 18.8943 14.4837C19.836 15.1221 20.5573 14.9843 20.5573 14.9843L23.9017 14.9374C23.9017 14.9374 25.6495 14.8324 24.8232 13.4805C24.7549 13.368 24.3389 12.4784 22.334 10.6474C20.2376 8.73211 20.5217 9.04242 23.0456 5.73117C24.5835 3.71273 25.1988 2.47992 25.0062 1.95492C24.8213 1.44961 23.6918 1.58086 23.6918 1.58086L19.9237 1.60617C19.5568 1.60711 19.2458 1.71773 19.1042 2.08898C19.1013 2.09273 18.5062 3.65086 17.7127 4.97555C16.0362 7.77773 15.3669 7.9268 15.0896 7.75148C14.4531 7.34555 14.6139 6.12305 14.6139 5.25398C14.6139 2.53805 15.0299 1.40555 13.7992 1.11305C13.388 1.01555 13.0876 0.951796 12.0389 0.942421C10.6985 0.922733 9.56027 0.942421 8.91508 1.25086C8.48656 1.45992 8.15819 1.91836 8.35753 1.94461C8.6079 1.97742 9.1693 2.09461 9.46975 2.49398C9.8559 3.01148 9.84434 4.17117 9.84434 4.17117C9.84434 4.17117 10.0649 7.36898 9.32434 7.76555C8.8159 8.03742 8.12064 7.48242 6.62516 4.93805C5.86153 3.6368 5.28471 2.19867 5.28471 2.19867C5.28471 2.19867 5.17301 1.93148 4.97079 1.78523C4.73005 1.6118 4.39301 1.55648 4.39301 1.55648L0.816563 1.57898C0.816563 1.57898 0.27923 1.59398 0.0818227 1.82461C-0.0934366 2.02898 0.0673782 2.45086 0.0673782 2.45086C0.0673782 2.45086 2.86864 8.9018 6.04064 12.1512C8.94879 15.1343 12.2537 14.9365 12.2537 14.9365H13.7511C13.7511 14.9365 14.2027 14.8859 14.4338 14.644C14.6495 14.419 14.6399 13.9962 14.6399 13.9962C14.6399 13.9962 14.61 12.019 15.5403 11.7284Z" fill="white"/>
</svg>
