<svg width="180" height="180" viewBox="0 0 180 180" fill="none" xmlns="http://www.w3.org/2000/svg">
<rect width="180" height="180" fill="#EE3643"/>
<path fill-rule="evenodd" clip-rule="evenodd" d="M42.5029 41.4475C39.3509 41.4475 39.079 44.7751 39.079 44.7751V69.9686C39.079 74.7564 43.8054 74.6054 43.8054 74.6054H58.4699C61.6203 74.6054 61.0765 77.0394 61.0765 77.0394C61.0765 77.0394 57.0567 98.2551 56.6236 101.844C56.1889 105.437 53.5823 107.721 53.5823 107.721C53.5823 107.721 50.1062 109.68 48.6946 110.441C47.2831 111.203 47.2831 114.869 47.2831 114.869H98.2895V112.834C98.2895 110.441 87.0368 107.721 82.8021 107.286C78.5657 106.852 79.4351 104.021 79.4351 104.021L81.1723 91.2935H86.0599L87.9062 78.4549H83.0186L83.5575 74.6054H97.574C107.025 73.6253 113.684 67.141 113.684 67.141V47.556C106.19 42.2252 94.4236 41.4475 94.4236 41.4475H42.5029ZM136.825 53.2896H158.785C159.722 53.2896 161.053 55.268 161.053 57.4343C161.053 59.6007 159.722 61.5791 158.785 61.5791H136.825C135.814 65.1901 133.452 67.5001 130.7 67.5001H118.421V47.3686H130.7C133.453 47.3686 135.814 49.6786 136.825 53.2896ZM50.4479 140.921C47.3685 140.921 47.3685 137.577 47.3685 137.577V119.627H98.2895V137.686C98.2895 140.621 94.9908 140.921 94.9908 140.921H50.4479ZM97.1053 50.3562V50.302C97.1053 49.3399 96.3718 48.5528 95.4754 48.5528H46.6299C45.7335 48.5528 45 49.3399 45 50.302V50.3562C45 51.3183 45.7335 52.1054 46.6299 52.1054H95.4754C96.3718 52.1054 97.1053 51.3183 97.1053 50.3562Z" fill="white"/>
</svg>
